<svg width="256" height="256" viewBox="0 0 256 256" fill="none" xmlns="http://www.w3.org/2000/svg">
<g clip-path="url(#clip0_1_2)">
<rect width="256" height="256" rx="64" fill="black"/>
<mask id="mask0_1_2" style="mask-type:alpha" maskUnits="userSpaceOnUse" x="0" y="0" width="256" height="256">
<rect width="256" height="256" fill="#D9D9D9"/>
</mask>
<g mask="url(#mask0_1_2)">
<path d="M163.2 178.133L178.133 163.2L138.667 123.733V74.6667H117.333V132.267L163.2 178.133ZM128 234.667C113.244 234.667 99.3778 231.867 86.4 226.267C73.4222 220.667 62.1333 213.067 52.5333 203.467C42.9333 193.867 35.3333 182.578 29.7333 169.6C24.1333 156.622 21.3333 142.756 21.3333 128C21.3333 113.244 24.1333 99.3778 29.7333 86.4C35.3333 73.4222 42.9333 62.1333 52.5333 52.5333C62.1333 42.9333 73.4222 35.3333 86.4 29.7333C99.3778 24.1333 113.244 21.3333 128 21.3333C142.756 21.3333 156.622 24.1333 169.6 29.7333C182.578 35.3333 193.867 42.9333 203.467 52.5333C213.067 62.1333 220.667 73.4222 226.267 86.4C231.867 99.3778 234.667 113.244 234.667 128C234.667 142.756 231.867 156.622 226.267 169.6C220.667 182.578 213.067 193.867 203.467 203.467C193.867 213.067 182.578 220.667 169.6 226.267C156.622 231.867 142.756 234.667 128 234.667ZM128 213.333C151.644 213.333 171.778 205.022 188.4 188.4C205.022 171.778 213.333 151.644 213.333 128C213.333 104.356 205.022 84.2222 188.4 67.6C171.778 50.9778 151.644 42.6667 128 42.6667C104.356 42.6667 84.2222 50.9778 67.6 67.6C50.9778 84.2222 42.6667 104.356 42.6667 128C42.6667 151.644 50.9778 171.778 67.6 188.4C84.2222 205.022 104.356 213.333 128 213.333Z" fill="white"/>
</g>
</g>
<defs>
<clipPath id="clip0_1_2">
<rect width="256" height="256" fill="white"/>
</clipPath>
</defs>
</svg>
