<svg width="256" height="256" viewBox="0 0 256 256" fill="none" xmlns="http://www.w3.org/2000/svg">
<g clip-path="url(#clip0_1_2)">
<rect width="256" height="256" rx="64" fill="black"/>
<path d="M89.8089 167.468C84.8145 167.468 80.2279 166.5 76.0489 164.564C71.8699 162.627 68.4554 159.977 65.8053 156.613C63.1553 153.148 61.6264 149.224 61.2187 144.841V113.499C61.6264 109.116 63.1553 105.141 65.8053 101.573C68.4554 98.0059 71.8699 95.203 76.0489 93.1644C80.2279 91.1259 84.8145 90.1067 89.8089 90.1067C96.8418 90.1067 103.059 91.7884 108.461 95.152C113.965 98.5156 118.246 103.102 121.304 108.912C124.464 114.722 126.044 121.347 126.044 128.788C126.044 136.228 124.464 142.853 121.304 148.663C118.246 154.473 113.965 159.06 108.461 162.423C103.059 165.787 96.8418 167.468 89.8089 167.468ZM85.528 146.37C88.8916 146.37 91.7965 145.605 94.2427 144.076C96.7908 142.548 98.7784 140.458 100.205 137.808C101.632 135.158 102.346 132.151 102.346 128.788C102.346 125.322 101.632 122.264 100.205 119.614C98.7784 116.964 96.7908 114.926 94.2427 113.499C91.7965 111.97 88.9425 111.205 85.6809 111.205C82.4193 111.205 79.5144 111.97 76.9662 113.499C74.52 114.926 72.5834 116.964 71.1565 119.614C69.7295 122.264 69.016 125.322 69.016 128.788C69.016 132.151 69.6785 135.158 71.0036 137.808C72.4305 140.458 74.4181 142.548 76.9662 144.076C79.5144 145.605 82.3683 146.37 85.528 146.37ZM47 197.282V91.6355H70.392V110.747L66.5698 128.788L70.0862 146.828V197.282H47Z" fill="white"/>
<path d="M182.006 165.94L164.118 137.044L159.072 133.833L129.871 91.6355H157.238L173.903 118.697L178.795 121.755L209.067 165.94H182.006ZM128.495 165.94L158.919 122.672L172.221 137.655L154.027 165.94H128.495ZM178.642 133.68L165.341 118.697L182.159 91.6355H207.538L178.642 133.68Z" fill="white"/>
</g>
<defs>
<clipPath id="clip0_1_2">
<rect width="256" height="256" fill="white"/>
</clipPath>
</defs>
</svg>
